<?xml version="1.0" encoding="UTF-8" standalone="no"?>
<svg xmlns="http://www.w3.org/2000/svg" xmlns:xlink="http://www.w3.org/1999/xlink" focusable="true" height="499.0" id="workspace" preserveAspectRatio="xMinYMin" viewBox="-443.0 -246.0 918.0 499.0" width="918.0">
<path d="M-209,112 C-218,112 -229,111 -238,111" fill="#007468" fill-opacity="1" stroke="#007468" stroke-opacity="1" stroke-width="1px" style="fill:none " visibility="visible"/>
<rect fill="#CC0033" fill-opacity="0.4" height="23" rx="0" ry="0" stroke="#FF9933" stroke-opacity="0.4" stroke-width="1px" visibility="hidden" width="102" x="-210" y="91"/>
<path d="M-264,102 C-245.66666666666666,105.33333333333333 -227.33333333333334,108.66666666666667 -209,112" fill-opacity="0.4" stroke="#CC0033" stroke-opacity="0.4" stroke-width="1px" style="fill:none " visibility="hidden"/>
<path d="M-136,116 C-90.66666666666666,77.33333333333333 -45.333333333333336,38.666666666666664 0,0" fill-opacity="0.4" stroke="#CC0033" stroke-opacity="0.4" stroke-width="1px" style="fill:none " visibility="hidden"/>
<path d="M0,0 C-36,0 -74,111 -110,111 -74,114 -36,5 0,7 Z" fill="#007468" fill-opacity="1" stroke="#007468" stroke-opacity="1" stroke-width="1px" style="fill:#007468 " visibility="visible"/>
<path d="M251,-62 C260,-62 270,52 279,52" fill="#007468" fill-opacity="1" stroke="#007468" stroke-opacity="1" stroke-width="1px" style="fill:none " visibility="visible"/>
<path d="M0,0 C-36,0 -74,82 -110,82 -74,85 -36,5 0,7 Z" fill="#007468" fill-opacity="1" stroke="#007468" stroke-opacity="1" stroke-width="1px" style="fill:#007468 " visibility="visible"/>
<path d="M0,0 C-36,0 -74,53 -110,53 -74,56 -36,5 0,7 Z" fill="#007468" fill-opacity="1" stroke="#007468" stroke-opacity="1" stroke-width="1px" style="fill:#007468 " visibility="visible"/>
<path d="M159,183 C168,183 179,197 188,197" fill="#007468" fill-opacity="1" stroke="#007468" stroke-opacity="1" stroke-width="1px" style="fill:none " visibility="visible"/>
<path d="M159,183 C168,183 178,168 187,168" fill="#007468" fill-opacity="1" stroke="#007468" stroke-opacity="1" stroke-width="1px" style="fill:none " visibility="visible"/>
<path d="M0,0 C36,0 74,182 110,182 74,185 36,5 0,7 Z" fill="#007468" fill-opacity="1" stroke="#007468" stroke-opacity="1" stroke-width="1px" style="fill:#007468 " visibility="visible"/>
<path d="M224,111 C233,111 243,139 252,139" fill="#007468" fill-opacity="1" stroke="#007468" stroke-opacity="1" stroke-width="1px" style="fill:none " visibility="visible"/>
<path d="M224,111 C233,111 243,110 252,110" fill="#007468" fill-opacity="1" stroke="#007468" stroke-opacity="1" stroke-width="1px" style="fill:none " visibility="visible"/>
<path d="M224,111 C233,111 244,81 253,81" fill="#007468" fill-opacity="1" stroke="#007468" stroke-opacity="1" stroke-width="1px" style="fill:none " visibility="visible"/>
<path d="M0,0 C37,0 74,110 111,110 74,113 37,5 0,7 Z" fill="#007468" fill-opacity="1" stroke="#007468" stroke-opacity="1" stroke-width="1px" style="fill:#007468 " visibility="visible"/>
<path d="M-231,-33 C-240,-33 -251,24 -260,24" fill="#007468" fill-opacity="1" stroke="#007468" stroke-opacity="1" stroke-width="1px" style="fill:none " visibility="visible"/>
<path d="M-231,-33 C-240,-33 -251,-4 -260,-4" fill="#007468" fill-opacity="1" stroke="#007468" stroke-opacity="1" stroke-width="1px" style="fill:none " visibility="visible"/>
<path d="M-231,-33 C-240,-33 -251,-33 -260,-33" fill="#007468" fill-opacity="1" stroke="#007468" stroke-opacity="1" stroke-width="1px" style="fill:none " visibility="visible"/>
<path d="M-231,-33 C-240,-33 -251,-62 -260,-62" fill="#007468" fill-opacity="1" stroke="#007468" stroke-opacity="1" stroke-width="1px" style="fill:none " visibility="visible"/>
<path d="M-231,-33 C-240,-33 -251,-91 -260,-91" fill="#007468" fill-opacity="1" stroke="#007468" stroke-opacity="1" stroke-width="1px" style="fill:none " visibility="visible"/>
<path d="M0,0 C-36,0 -74,-33 -110,-33 -74,-30 -36,5 0,7 Z" fill="#007468" fill-opacity="1" stroke="#007468" stroke-opacity="1" stroke-width="1px" style="fill:#007468 " visibility="visible"/>
<path d="M251,-62 C260,-62 271,23 280,23" fill="#007468" fill-opacity="1" stroke="#007468" stroke-opacity="1" stroke-width="1px" style="fill:none " visibility="visible"/>
<path d="M251,-62 C260,-62 271,-5 280,-5" fill="#007468" fill-opacity="1" stroke="#007468" stroke-opacity="1" stroke-width="1px" style="fill:none " visibility="visible"/>
<path d="M251,-62 C260,-62 270,-34 279,-34" fill="#007468" fill-opacity="1" stroke="#007468" stroke-opacity="1" stroke-width="1px" style="fill:none " visibility="visible"/>
<path d="M251,-62 C260,-62 271,-63 280,-63" fill="#007468" fill-opacity="1" stroke="#007468" stroke-opacity="1" stroke-width="1px" style="fill:none " visibility="visible"/>
<path d="M251,-62 C260,-62 270,-92 279,-92" fill="#007468" fill-opacity="1" stroke="#007468" stroke-opacity="1" stroke-width="1px" style="fill:none " visibility="visible"/>
<path d="M251,-62 C260,-62 271,-121 280,-121" fill="#007468" fill-opacity="1" stroke="#007468" stroke-opacity="1" stroke-width="1px" style="fill:none " visibility="visible"/>
<path d="M251,-62 C260,-62 271,-150 280,-150" fill="#007468" fill-opacity="1" stroke="#007468" stroke-opacity="1" stroke-width="1px" style="fill:none " visibility="visible"/>
<path d="M251,-62 C260,-62 270,-177 279,-177" fill="#007468" fill-opacity="1" stroke="#007468" stroke-opacity="1" stroke-width="1px" style="fill:none " visibility="visible"/>
<path d="M0,0 C36,0 74,-62 110,-62 74,-59 36,5 0,7 Z" fill="#007468" fill-opacity="1" stroke="#007468" stroke-opacity="1" stroke-width="1px" style="fill:#007468 " visibility="visible"/>

<g focusable="true" height="100" preserveAspectRatio="none" transform="translate(-84,-18) scale(1,1)" visibility="visible" width="100">
<rect fill="rgb(252,235,192)" fill-opacity="0" height="43" rx="6.45" ry="6.45" stroke="rgb(241,163,39)" stroke-opacity="0" stroke-width="1px" style="cursor: default;" width="172" x="-2" y="-3"/>
<rect fill="rgb(0,116,104)" height="37" rx="5.55" ry="5.55" stroke="rgb(0,116,104)" stroke-width="2px" style="cursor: default;" width="168" x="0" y="0"/>
<text fill="rgb(255,255,255)" font-family="arial" font-size="13" font-style="normal" font-weight="normal" style="cursor: default;" visibility="visible" x="11" y="11">
<tspan dy="1em" x="11">ENTRAIDE ET CULTURE</tspan>
</text>
<g focusable="true" height="15" preserveAspectRatio="none" transform="translate(0,11) scale(0,0.15)" width="0"/>
</g>
<g focusable="true" height="100" preserveAspectRatio="none" transform="translate(110,-81) scale(1,1)" visibility="visible" width="100">
<rect fill="rgb(252,235,192)" fill-opacity="0" height="25" rx="3.75" ry="3.75" stroke="rgb(241,163,39)" stroke-opacity="0" stroke-width="1px" width="143" x="-2" y="-3"/>
<line stroke="#007468" stroke-opacity="1" stroke-width="1px" style="cursor: move;" x1="0" x2="139" y1="19" y2="19"/>
<text fill="#444444" font-family="verdana" font-size="10.75" font-style="normal" font-weight="bold" style="cursor: move;" visibility="visible" x="3" y="3">
<tspan dy="1em" x="3">Alphabétisation &amp; FLE</tspan>
</text>
<ellipse cx="142" cy="19" fill="#007468" height="6" rx="3" ry="3" stroke="#007468" stroke-width="1px" style="cursor: default;" visibility="visible" width="6"/>
<g focusable="true" height="13" preserveAspectRatio="none" transform="translate(0,3) scale(0,0.13)" width="0"/>
</g>
<g focusable="true" height="100" preserveAspectRatio="none" transform="translate(279,-196) scale(1,1)" visibility="visible" width="100">
<rect fill="rgb(252,235,192)" fill-opacity="0" height="25" rx="3.75" ry="3.75" stroke="rgb(241,163,39)" stroke-opacity="0" stroke-width="1px" width="79" x="-2" y="-3"/>
<line stroke="#007468" stroke-opacity="1" stroke-width="1px" style="cursor: move;" x1="0" x2="75" y1="19" y2="19"/>
<text fill="#444444" font-family="verdana" font-size="10.75" font-style="normal" font-weight="normal" style="cursor: move;" visibility="visible" x="3" y="3">
<a target="_blank" xlink:href="http://www.lire-et-ecrire.be"><tspan dy="1em" x="3">Lire et Ecrire</tspan></a>
</text>
<ellipse cx="3" cy="3" fill="rgb(224,229,239)" height="6" rx="3" ry="3" stroke="rgb(2,59,185)" stroke-width="1px" style="cursor: default;" visibility="hidden" width="6"/>
<g focusable="true" height="13" preserveAspectRatio="none" transform="translate(0,3) scale(0,0.13)" width="0"/>
</g>
<g focusable="true" height="100" preserveAspectRatio="none" transform="translate(280,-167) scale(1,1)" visibility="visible" width="100">
<rect fill="rgb(252,235,192)" fill-opacity="0" height="23" rx="3.4499999999999997" ry="3.4499999999999997" stroke="rgb(241,163,39)" stroke-opacity="0" stroke-width="1px" width="32" x="-2" y="-3"/>
<line stroke="#007468" stroke-opacity="1" stroke-width="1px" style="cursor: move;" x1="0" x2="28" y1="17" y2="17"/>
<text fill="rgb(82,92,97)" font-family="Arial" font-size="10.75" font-style="normal" font-weight="normal" style="cursor: move;" visibility="visible" x="3" y="3">
<a target="_blank" xlink:href="http://www.f-q-s.be"><tspan dy="1em" x="3">FQS</tspan></a>
</text>
<ellipse cx="3" cy="3" fill="rgb(224,229,239)" height="6" rx="3" ry="3" stroke="rgb(2,59,185)" stroke-width="1px" style="cursor: default;" visibility="hidden" width="6"/>
<g focusable="true" height="11" preserveAspectRatio="none" transform="translate(0,3) scale(0,0.11)" width="0"/>
</g>
<g focusable="true" height="100" preserveAspectRatio="none" transform="translate(280,-140) scale(1,1)" visibility="visible" width="100">
<rect fill="rgb(252,235,192)" fill-opacity="0" height="25" rx="3.75" ry="3.75" stroke="rgb(241,163,39)" stroke-opacity="0" stroke-width="1px" width="116" x="-2" y="-3"/>
<line stroke="#007468" stroke-opacity="1" stroke-width="1px" style="cursor: move;" x1="0" x2="112" y1="19" y2="19"/>
<text fill="rgb(82,92,97)" font-family="verdana" font-size="10.75" font-style="normal" font-weight="normal" style="cursor: move;" visibility="visible" x="3" y="3">
<a target="_blank" xlink:href="https://www.medecinsdumonde.be"><tspan dy="1em" x="3">Médecins du Monde</tspan></a>
</text>
<ellipse cx="3" cy="3" fill="rgb(224,229,239)" height="6" rx="3" ry="3" stroke="rgb(2,59,185)" stroke-width="1px" style="cursor: default;" visibility="hidden" width="6"/>
<g focusable="true" height="13" preserveAspectRatio="none" transform="translate(0,3) scale(0,0.13)" width="0"/>
</g>
<g focusable="true" height="100" preserveAspectRatio="none" transform="translate(279,-111) scale(1,1)" visibility="visible" width="100">
<rect fill="rgb(252,235,192)" fill-opacity="0" height="25" rx="3.75" ry="3.75" stroke="rgb(241,163,39)" stroke-opacity="0" stroke-width="1px" width="25" x="-2" y="-3"/>
<line stroke="#007468" stroke-opacity="1" stroke-width="1px" style="cursor: move;" x1="0" x2="21" y1="19" y2="19"/>
<text fill="#444444" font-family="verdana" font-size="10.75" font-style="normal" font-weight="normal" style="cursor: move;" visibility="visible" x="3" y="3">
<a target="_blank" xlink:href="https://www.fij.be"><tspan dy="1em" x="3">FIJ</tspan></a>
</text>
<ellipse cx="3" cy="3" fill="rgb(224,229,239)" height="6" rx="3" ry="3" stroke="rgb(0, 0, 0)" stroke-width="1px" style="cursor: default;" visibility="hidden" width="6"/>
<g focusable="true" height="13" preserveAspectRatio="none" transform="translate(0,3) scale(0,0.13)" width="0"/>
</g>
<g focusable="true" height="100" preserveAspectRatio="none" transform="translate(280,-82) scale(1,1)" visibility="visible" width="100">
<rect fill="rgb(252,235,192)" fill-opacity="0" height="25" rx="3.75" ry="3.75" stroke="rgb(241,163,39)" stroke-opacity="0" stroke-width="1px" width="76" x="-2" y="-3"/>
<line stroke="#007468" stroke-opacity="1" stroke-width="1px" style="cursor: move;" x1="0" x2="72" y1="19" y2="19"/>
<text fill="#444444" font-family="verdana" font-size="10.75" font-style="normal" font-weight="normal" style="cursor: move;" visibility="visible" x="3" y="3">
<a target="_blank" xlink:href="http://unemaisonenplus.be"><tspan dy="1em" x="3">Maison en +</tspan></a>
</text>
<ellipse cx="3" cy="3" fill="rgb(224,229,239)" height="6" rx="3" ry="3" stroke="rgb(0, 0, 0)" stroke-width="1px" style="cursor: default;" visibility="hidden" width="6"/>
<g focusable="true" height="13" preserveAspectRatio="none" transform="translate(0,3) scale(0,0.13)" width="0"/>
</g>
<g focusable="true" height="100" preserveAspectRatio="none" transform="translate(279,-53) scale(1,1)" visibility="visible" width="100">
<rect fill="rgb(252,235,192)" fill-opacity="0" height="25" rx="3.75" ry="3.75" stroke="rgb(241,163,39)" stroke-opacity="0" stroke-width="1px" width="85" x="-2" y="-3"/>
<line stroke="#007468" stroke-opacity="1" stroke-width="1px" style="cursor: move;" x1="0" x2="81" y1="19" y2="19"/>
<text fill="#444444" font-family="verdana" font-size="10.75" font-style="normal" font-weight="normal" style="cursor: move;" visibility="visible" x="3" y="3">
<a target="_blank" xlink:href="https://www.smalacinema.be"><tspan dy="1em" x="3">Smala Cinédit</tspan></a>
</text>
<ellipse cx="3" cy="3" fill="rgb(224,229,239)" height="6" rx="3" ry="3" stroke="rgb(0, 0, 0)" stroke-width="1px" style="cursor: default;" visibility="hidden" width="6"/>
<g focusable="true" height="13" preserveAspectRatio="none" transform="translate(0,3) scale(0,0.13)" width="0"/>
</g>
<g focusable="true" height="100" preserveAspectRatio="none" transform="translate(280,-24) scale(1,1)" visibility="visible" width="100">
<rect fill="rgb(252,235,192)" fill-opacity="0" height="25" rx="3.75" ry="3.75" stroke="rgb(241,163,39)" stroke-opacity="0" stroke-width="1px" width="144" x="-2" y="-3"/>
<line stroke="#007468" stroke-opacity="1" stroke-width="1px" style="cursor: move;" x1="0" x2="140" y1="19" y2="19"/>
<text fill="#444444" font-family="verdana" font-size="10.75" font-style="normal" font-weight="normal" style="cursor: move;" visibility="visible" x="3" y="3">
<a target="_blank" xlink:href="http://www.vinci.be/fr-be/Pages/Accueil.aspx"><tspan dy="1em" x="3">Institut Libre Marie Haps</tspan></a>
</text>
<ellipse cx="3" cy="3" fill="rgb(224,229,239)" height="6" rx="3" ry="3" stroke="rgb(0, 0, 0)" stroke-width="1px" style="cursor: default;" visibility="hidden" width="6"/>
<g focusable="true" height="13" preserveAspectRatio="none" transform="translate(0,3) scale(0,0.13)" width="0"/>
</g>
<g focusable="true" height="100" preserveAspectRatio="none" transform="translate(280,4) scale(1,1)" visibility="visible" width="100">
<rect fill="rgb(252,235,192)" fill-opacity="0" height="25" rx="3.75" ry="3.75" stroke="rgb(241,163,39)" stroke-opacity="0" stroke-width="1px" style="cursor: move;" width="62" x="-2" y="-3"/>
<line stroke="#007468" stroke-opacity="1" stroke-width="1px" style="cursor: move;" x1="0" x2="58" y1="19" y2="19"/>
<text fill="#444444" font-family="verdana" font-size="10.75" font-style="normal" font-weight="normal" style="cursor: move;" visibility="visible" x="3" y="3">
<a target="_blank" xlink:href="http://www.article27.be/bruxelles/"><tspan dy="1em" x="3">Article 27</tspan></a>
</text>
<ellipse cx="3" cy="3" fill="rgb(224,229,239)" height="6" rx="3" ry="3" stroke="rgb(0, 0, 0)" stroke-width="1px" style="cursor: default;" visibility="hidden" width="6"/>
<g focusable="true" height="13" preserveAspectRatio="none" transform="translate(0,3) scale(0,0.13)" width="0"/>
</g>
<g focusable="true" height="100" preserveAspectRatio="none" transform="translate(-230,-52) scale(1,1)" visibility="visible" width="100">
<rect fill="rgb(252,235,192)" fill-opacity="0" height="25" rx="3.75" ry="3.75" stroke="rgb(241,163,39)" stroke-opacity="0" stroke-width="1px" width="124" x="-2" y="-3"/>
<line stroke="#007468" stroke-opacity="1" stroke-width="1px" style="cursor: move;" x1="0" x2="120" y1="19" y2="19"/>
<text fill="#444444" font-family="verdana" font-size="10.75" font-style="normal" font-weight="bold" style="cursor: move;" visibility="visible" x="3" y="3">
<tspan dy="1em" x="3">Bourse alimentaire</tspan>
</text>
<ellipse cx="-3" cy="19" fill="#007468" height="6" rx="3" ry="3" stroke="#007468" stroke-width="1px" style="cursor: default;" visibility="visible" width="6"/>
<g focusable="true" height="13" preserveAspectRatio="none" transform="translate(0,3) scale(0,0.13)" width="0"/>
</g>
<g focusable="true" height="100" preserveAspectRatio="none" transform="translate(-370,-110) scale(1,1)" visibility="visible" width="100">
<rect fill="rgb(252,235,192)" fill-opacity="0" height="25" rx="3.75" ry="3.75" stroke="rgb(241,163,39)" stroke-opacity="0" stroke-width="1px" width="114" x="-2" y="-3"/>
<line stroke="#007468" stroke-opacity="1" stroke-width="1px" style="cursor: move;" x1="0" x2="110" y1="19" y2="19"/>
<text fill="#444444" font-family="verdana" font-size="10.75" font-style="normal" font-weight="normal" style="cursor: move;" visibility="visible" x="3" y="3">
<a target="_blank" xlink:href="http://www.foodbanks.be"><tspan dy="1em" x="3">Banque alimentaire</tspan></a>
</text>
<ellipse cx="3" cy="3" fill="rgb(224,229,239)" height="6" rx="3" ry="3" stroke="rgb(2,59,185)" stroke-width="1px" style="cursor: default;" visibility="hidden" width="6"/>
<g focusable="true" height="13" preserveAspectRatio="none" transform="translate(0,3) scale(0,0.13)" width="0"/>
</g>
<g focusable="true" height="100" preserveAspectRatio="none" transform="translate(-359,-81) scale(1,1)" visibility="visible" width="100">
<rect fill="rgb(252,235,192)" fill-opacity="0" height="25" rx="3.75" ry="3.75" stroke="rgb(241,163,39)" stroke-opacity="0" stroke-width="1px" width="103" x="-2" y="-3"/>
<line stroke="#007468" stroke-opacity="1" stroke-width="1px" style="cursor: move;" x1="0" x2="99" y1="19" y2="19"/>
<text fill="#444444" font-family="verdana" font-size="10.75" font-style="normal" font-weight="normal" style="cursor: move;" visibility="visible" x="3" y="3">
<a target="_blank" xlink:href="https://www.colruyt.be/fr"><tspan dy="1em" x="3">Colruyt de Forest</tspan></a>
</text>
<ellipse cx="3" cy="3" fill="rgb(224,229,239)" height="6" rx="3" ry="3" stroke="rgb(2,59,185)" stroke-width="1px" style="cursor: default;" visibility="hidden" width="6"/>
<g focusable="true" height="13" preserveAspectRatio="none" transform="translate(0,3) scale(0,0.13)" width="0"/>
</g>
<g focusable="true" height="100" preserveAspectRatio="none" transform="translate(-393,-52) scale(1,1)" visibility="visible" width="100">
<rect fill="rgb(252,235,192)" fill-opacity="0" height="25" rx="3.75" ry="3.75" stroke="rgb(241,163,39)" stroke-opacity="0" stroke-width="1px" style="cursor: move;" width="137" x="-2" y="-3"/>
<line stroke="#007468" stroke-opacity="1" stroke-width="1px" style="cursor: move;" x1="0" x2="133" y1="19" y2="19"/>
<text fill="#444444" font-family="verdana" font-size="10.75" font-style="normal" font-weight="normal" style="cursor: move;" visibility="visible" x="3" y="3">
<a target="_blank" xlink:href="http://tartine-et-boterham.be/boulangerie-patisserie/la-foret-noire"><tspan dy="1em" x="3">Boulangerie Forêt Noire</tspan></a>
</text>
<ellipse cx="3" cy="3" fill="rgb(224,229,239)" height="6" rx="3" ry="3" stroke="rgb(2,59,185)" stroke-width="1px" style="cursor: default;" visibility="hidden" width="6"/>
<g focusable="true" height="13" preserveAspectRatio="none" transform="translate(0,3) scale(0,0.13)" width="0"/>
</g>
<g focusable="true" height="100" preserveAspectRatio="none" transform="translate(-364,-23) scale(1,1)" visibility="visible" width="100">
<rect fill="rgb(252,235,192)" fill-opacity="0" height="25" rx="3.75" ry="3.75" stroke="rgb(241,163,39)" stroke-opacity="0" stroke-width="1px" width="108" x="-2" y="-3"/>
<line stroke="#007468" stroke-opacity="1" stroke-width="1px" style="cursor: move;" x1="0" x2="104" y1="19" y2="19"/>
<text fill="#444444" font-family="verdana" font-size="10.75" font-style="normal" font-weight="normal" style="cursor: move;" visibility="visible" x="3" y="3">
<a target="_blank" xlink:href="http://www.cpasbru.irisnet.be/fr/index.asp?ID=67"><tspan dy="1em" x="3">Plateforme Dream</tspan></a>
</text>
<ellipse cx="3" cy="3" fill="rgb(224,229,239)" height="6" rx="3" ry="3" stroke="rgb(2,59,185)" stroke-width="1px" style="cursor: default;" visibility="hidden" width="6"/>
<g focusable="true" height="13" preserveAspectRatio="none" transform="translate(0,3) scale(0,0.13)" width="0"/>
</g>
<g focusable="true" height="100" preserveAspectRatio="none" transform="translate(-318,5) scale(1,1)" visibility="visible" width="100">
<rect fill="rgb(252,235,192)" fill-opacity="0" height="25" rx="3.75" ry="3.75" stroke="rgb(241,163,39)" stroke-opacity="0" stroke-width="1px" width="62" x="-2" y="-3"/>
<line stroke="#007468" stroke-opacity="1" stroke-width="1px" style="cursor: move;" x1="0" x2="58" y1="19" y2="19"/>
<text fill="rgb(82,92,97)" font-family="verdana" font-size="10.75" font-style="normal" font-weight="normal" style="cursor: move;" visibility="visible" x="3" y="3">
<a target="_blank" xlink:href="https://www.leradian.be"><tspan dy="1em" x="3">Le Radian</tspan></a>
</text>
<ellipse cx="3" cy="3" fill="rgb(224,229,239)" height="6" rx="3" ry="3" stroke="rgb(2,59,185)" stroke-width="1px" style="cursor: default;" visibility="hidden" width="6"/>
<g focusable="true" height="13" preserveAspectRatio="none" transform="translate(0,3) scale(0,0.13)" width="0"/>
</g>
<g focusable="true" height="100" preserveAspectRatio="none" transform="translate(111,91) scale(1,1)" visibility="visible" width="100">
<rect fill="rgb(252,235,192)" fill-opacity="0" height="25" rx="3.75" ry="3.75" stroke="rgb(241,163,39)" stroke-opacity="0" stroke-width="1px" width="116" x="-2" y="-3"/>
<line stroke="#007468" stroke-opacity="1" stroke-width="1px" style="cursor: move;" x1="0" x2="112" y1="19" y2="19"/>
<text fill="#444444" font-family="verdana" font-size="10.75" font-style="normal" font-weight="bold" style="cursor: move;" visibility="visible" x="3" y="3">
<tspan dy="1em" x="3">Ecole des Devoirs</tspan>
</text>
<ellipse cx="115" cy="19" fill="#007468" height="6" rx="3" ry="3" stroke="#007468" stroke-width="1px" style="cursor: default;" visibility="visible" width="6"/>
<g focusable="true" height="13" preserveAspectRatio="none" transform="translate(0,3) scale(0,0.13)" width="0"/>
</g>
<g focusable="true" height="100" preserveAspectRatio="none" transform="translate(253,62) scale(1,1)" visibility="visible" width="100">
<rect fill="rgb(252,235,192)" fill-opacity="0" height="25" rx="3.75" ry="3.75" stroke="rgb(241,163,39)" stroke-opacity="0" stroke-width="1px" width="62" x="-2" y="-3"/>
<line stroke="#007468" stroke-opacity="1" stroke-width="1px" style="cursor: move;" x1="0" x2="58" y1="19" y2="19"/>
<text fill="#444444" font-family="verdana" font-size="10.75" font-style="normal" font-weight="normal" style="cursor: move;" visibility="visible" x="3" y="3">
<a target="_blank" xlink:href="http://www.article27.be/bruxelles/"><tspan dy="1em" x="3">Article 27</tspan></a>
</text>
<ellipse cx="3" cy="3" fill="rgb(224,229,239)" height="6" rx="3" ry="3" stroke="rgb(2,59,185)" stroke-width="1px" style="cursor: default;" visibility="hidden" width="6"/>
<g focusable="true" height="13" preserveAspectRatio="none" transform="translate(0,3) scale(0,0.13)" width="0"/>
</g>
<g focusable="true" height="100" preserveAspectRatio="none" transform="translate(252,91) scale(1,1)" visibility="visible" width="100">
<rect fill="rgb(252,235,192)" fill-opacity="0" height="25" rx="3.75" ry="3.75" stroke="rgb(241,163,39)" stroke-opacity="0" stroke-width="1px" width="129" x="-2" y="-3"/>
<line stroke="#007468" stroke-opacity="1" stroke-width="1px" style="cursor: move;" x1="0" x2="125" y1="19" y2="19"/>
<text fill="#444444" font-family="verdana" font-size="10.75" font-style="normal" font-weight="normal" style="cursor: move;" visibility="visible" x="3" y="3">
<a target="_blank" xlink:href="http://www.haricots.org"><tspan dy="1em" x="3">Le Début des Haricots</tspan></a>
</text>
<ellipse cx="3" cy="3" fill="rgb(224,229,239)" height="6" rx="3" ry="3" stroke="rgb(2,59,185)" stroke-width="1px" style="cursor: default;" visibility="hidden" width="6"/>
<g focusable="true" height="13" preserveAspectRatio="none" transform="translate(0,3) scale(0,0.13)" width="0"/>
</g>
<g focusable="true" height="100" preserveAspectRatio="none" transform="translate(252,120) scale(1,1)" visibility="visible" width="100">
<rect fill="rgb(252,235,192)" fill-opacity="0" height="25" rx="3.75" ry="3.75" stroke="rgb(241,163,39)" stroke-opacity="0" stroke-width="1px" width="173" x="-2" y="-3"/>
<line stroke="#007468" stroke-opacity="1" stroke-width="1px" style="cursor: move;" x1="0" x2="169" y1="19" y2="19"/>
<text fill="#444444" font-family="verdana" font-size="10.75" font-style="normal" font-weight="normal" style="cursor: move;" visibility="visible" x="3" y="3">
<a target="_blank" xlink:href="http://ccok.be"><tspan dy="1em" x="3">Omar Khayam Centre Culturel</tspan></a>
</text>
<ellipse cx="3" cy="3" fill="rgb(224,229,239)" height="6" rx="3" ry="3" stroke="rgb(2,59,185)" stroke-width="1px" style="cursor: default;" visibility="hidden" width="6"/>
<g focusable="true" height="13" preserveAspectRatio="none" transform="translate(0,3) scale(0,0.13)" width="0"/>
</g>
<g focusable="true" height="100" preserveAspectRatio="none" transform="translate(-310,92) scale(1,1)" visibility="visible" width="100">
<rect fill="rgb(252,235,192)" fill-opacity="0" height="25" rx="3.75" ry="3.75" stroke="rgb(241,163,39)" stroke-opacity="0" stroke-width="1px" style="cursor: move;" width="76" x="-2" y="-3"/>
<line stroke="#007468" stroke-opacity="1" stroke-width="1px" style="cursor: move;" x1="0" x2="72" y1="19" y2="19"/>
<text fill="rgb(82,92,97)" font-family="verdana" font-size="10.75" font-style="normal" font-weight="normal" style="cursor: move;" visibility="visible" x="3" y="3">
<a target="_blank" xlink:href="http://unemaisonenplus.be"><tspan dy="1em" x="3">Maison en +</tspan></a>
</text>
<g focusable="true" height="13" preserveAspectRatio="none" transform="translate(0,3) scale(0,0.13)" width="0"/>
<ellipse cx="3" cy="3" fill="rgb(224,229,239)" height="6" rx="3" ry="3" stroke="rgb(2,59,185)" stroke-width="1px" style="cursor: default;" visibility="hidden" width="6"/>
</g>
<g focusable="true" height="100" preserveAspectRatio="none" transform="translate(110,163) scale(1,1)" visibility="visible" width="100">
<rect fill="rgb(252,235,192)" fill-opacity="0" height="25" rx="3.75" ry="3.75" stroke="rgb(241,163,39)" stroke-opacity="0" stroke-width="1px" width="51" x="-2" y="-3"/>
<line stroke="#007468" stroke-opacity="1" stroke-width="1px" style="cursor: move;" x1="0" x2="47" y1="19" y2="19"/>
<text fill="rgb(0, 0, 0)" font-family="verdana" font-size="10.75" font-style="normal" font-weight="bold" style="cursor: move;" visibility="visible" x="3" y="3">
<tspan dy="1em" x="3">N.T.I.C</tspan>
</text>
<ellipse cx="50" cy="19" fill="#007468" height="6" rx="3" ry="3" stroke="#007468" stroke-width="1px" style="cursor: default;" visibility="visible" width="6"/>
<g focusable="true" height="13" preserveAspectRatio="none" transform="translate(0,3) scale(0,0.13)" width="0"/>
</g>
<g focusable="true" height="100" preserveAspectRatio="none" transform="translate(187,149) scale(1,1)" visibility="visible" width="100">
<rect fill="rgb(252,235,192)" fill-opacity="0" height="25" rx="3.75" ry="3.75" stroke="rgb(241,163,39)" stroke-opacity="0" stroke-width="1px" width="39" x="-2" y="-3"/>
<line stroke="#007468" stroke-opacity="1" stroke-width="1px" style="cursor: move;" x1="0" x2="35" y1="19" y2="19"/>
<text fill="rgb(0, 0, 0)" font-family="verdana" font-size="10.75" font-style="normal" font-weight="normal" style="cursor: move;" visibility="visible" x="3" y="3">
<a xlink:href="http://www.cf2m.be" target="_blank"><tspan dy="1em" x="3">CF2M</tspan></a>
</text>
<ellipse cx="3" cy="3" fill="#0a0a08" height="6" rx="3" ry="3" stroke="rgb(2,59,185)" stroke-width="1px" style="cursor: default;" visibility="hidden" width="6"/>
<g focusable="true" height="13" preserveAspectRatio="none" transform="translate(0,3) scale(0,0.13)" width="0"/>
</g>
<g focusable="true" height="100" preserveAspectRatio="none" transform="translate(188,178) scale(1,1)" visibility="visible" width="100">
<rect fill="rgb(252,235,192)" fill-opacity="0" height="25" rx="3.75" ry="3.75" stroke="rgb(241,163,39)" stroke-opacity="0" stroke-width="1px" width="56" x="-2" y="-3"/>
<line stroke="#007468" stroke-opacity="1" stroke-width="1px" style="cursor: move;" x1="0" x2="52" y1="19" y2="19"/>
<text fill="rgb(0, 0, 0)" font-family="verdana" font-size="10.75" font-style="normal" font-weight="normal" style="cursor: move;" visibility="visible" x="3" y="3">
<a target="_blank" xlink:href="http://lebrass.be"><tspan dy="1em" x="3">Le Brass</tspan></a>
</text>
<ellipse cx="3" cy="3" fill="#0a0a08" height="6" rx="3" ry="3" stroke="rgb(2,59,185)" stroke-width="1px" style="cursor: default;" visibility="hidden" width="6"/>
<g focusable="true" height="13" preserveAspectRatio="none" transform="translate(0,3) scale(0,0.13)" width="0"/>
</g>
<g focusable="true" height="100" preserveAspectRatio="none" transform="translate(-208,34) scale(1,1)" visibility="visible" width="100">
<rect fill="rgb(252,235,192)" fill-opacity="0" height="25" rx="3.75" ry="3.75" stroke="rgb(241,163,39)" stroke-opacity="0" stroke-width="1px" width="102" x="-2" y="-3"/>
<line stroke="#007468" stroke-opacity="1" stroke-width="1px" style="cursor: move;" x1="0" x2="98" y1="19" y2="19"/>
<text fill="rgb(0, 0, 0)" font-family="verdana" font-size="10.75" font-style="normal" font-weight="bold" style="cursor: move;" visibility="visible" x="3" y="3">
<tspan dy="1em" x="3">Vestiaire social</tspan>
</text>
<ellipse cx="3" cy="3" fill="#0a0a08" height="6" rx="3" ry="3" stroke="rgb(2,59,185)" stroke-width="1px" style="cursor: default;" visibility="hidden" width="6"/>
<g focusable="true" height="13" preserveAspectRatio="none" transform="translate(0,3) scale(0,0.13)" width="0"/>
</g>
<g focusable="true" height="100" preserveAspectRatio="none" transform="translate(-199,63) scale(1,1)" visibility="visible" width="100">
<rect fill="rgb(252,235,192)" fill-opacity="0" height="25" rx="3.75" ry="3.75" stroke="rgb(241,163,39)" stroke-opacity="0" stroke-width="1px" style="cursor: move;" width="93" x="-2" y="-3"/>
<line stroke="#007468" stroke-opacity="1" stroke-width="1px" style="cursor: move;" x1="0" x2="89" y1="19" y2="19"/>
<text fill="rgb(0, 0, 0)" font-family="verdana" font-size="10.75" font-style="normal" font-weight="bold" style="cursor: move;" visibility="visible" x="3" y="3">
<tspan dy="1em" x="3">Service Social</tspan>
</text>
<ellipse cx="3" cy="3" fill="#0a0a08" height="6" rx="3" ry="3" stroke="rgb(2,59,185)" stroke-width="1px" style="cursor: default;" visibility="hidden" width="6"/>
<g focusable="true" height="13" preserveAspectRatio="none" transform="translate(0,3) scale(0,0.13)" width="0"/>
</g>
<g focusable="true" height="100" preserveAspectRatio="none" transform="translate(279,33) scale(1,1)" visibility="visible" width="100">
<rect fill="rgb(252,235,192)" fill-opacity="0" height="25" rx="3.75" ry="3.75" stroke="rgb(241,163,39)" stroke-opacity="0" stroke-width="1px" style="cursor: move;" width="129" x="-2" y="-3"/>
<line stroke="#007468" stroke-opacity="1" stroke-width="1px" style="cursor: move;" x1="0" x2="125" y1="19" y2="19"/>
<text fill="#444444" font-family="verdana" font-size="10.75" font-style="normal" font-weight="normal" style="cursor: move;" visibility="visible" x="3" y="3">
<a target="_blank" xlink:href="http://www.haricots.org"><tspan dy="1em" x="3">Le Début des Haricots</tspan></a>
</text>
<ellipse cx="3" cy="3" fill="rgb(224,229,239)" height="6" rx="3" ry="3" stroke="rgb(0, 0, 0)" stroke-width="1px" style="cursor: default;" visibility="hidden" width="6"/>
<g focusable="true" height="13" preserveAspectRatio="none" transform="translate(0,3) scale(0,0.13)" width="0"/>
</g>
<g focusable="true" height="100" preserveAspectRatio="none" transform="translate(-208,92) scale(1,1)" visibility="visible" width="100">
<rect fill="rgb(252,235,192)" fill-opacity="0" height="25" rx="3.75" ry="3.75" stroke="rgb(241,163,39)" stroke-opacity="0" stroke-width="1px" style="cursor: move;" width="102" x="-2" y="-3"/>
<line stroke="#007468" stroke-opacity="1" stroke-width="1px" style="cursor: move;" x1="0" x2="98" y1="19" y2="19"/>
<text fill="rgb(0, 0, 0)" font-family="verdana" font-size="10.75" font-style="normal" font-weight="bold" style="cursor: move;" visibility="visible" x="3" y="3">
<tspan dy="1em" x="3">Aide à domicile</tspan>
</text>
<ellipse cx="-3" cy="19" fill="#007468" height="6" rx="3" ry="3" stroke="#007468" stroke-width="1px" style="cursor: default;" visibility="visible" width="6"/>
<g focusable="true" height="13" preserveAspectRatio="none" transform="translate(0,3) scale(0,0.13)" width="0"/>
</g>
<rect fill="#CC0033" fill-opacity="0.4" height="6" rx="0" ry="0" stroke="#FF9933" stroke-opacity="0.4" stroke-width="1px" visibility="hidden" width="50" x="-312" y="99"/>
</svg>
